<svg xmlns="http://www.w3.org/2000/svg" viewBox="0 0 11.8 11.8"><defs><style>.cls-1{fill:#fff;}</style></defs><g id="Layer_2" data-name="Layer 2"><g id="Layer_1-2" data-name="Layer 1"><g id="Group_15" data-name="Group 15"><path id="Path_35" data-name="Path 35" class="cls-1" d="M5.9,0a5.9,5.9,0,1,0,5.9,5.9h0A5.9,5.9,0,0,0,5.9,0ZM9.34,6.15a.24.24,0,0,1-.24.24H6.4V9.1a.25.25,0,0,1-.25.25h-.5a.25.25,0,0,1-.24-.25V6.4H2.7a.25.25,0,0,1-.25-.25v-.5a.25.25,0,0,1,.25-.24H5.4V2.7a.25.25,0,0,1,.25-.25h.49a.25.25,0,0,1,.24.25V5.4H9.1a.25.25,0,0,1,.25.25h0Z"/></g></g></g></svg>