<svg id="Layer_1" data-name="Layer 1" xmlns="http://www.w3.org/2000/svg" viewBox="0 0 15.87 10.09"><defs><style>.cls-1{fill:#fff;}</style></defs><g id="Layer_2" data-name="Layer 2"><g id="Layer_1-2" data-name="Layer 1-2"><path id="Path_64" data-name="Path 64" class="cls-1" d="M0,5.06a1.34,1.34,0,0,0,.4,1l3.66,3.6a1.43,1.43,0,0,0,2,0h0l0-.08a1.36,1.36,0,0,0,0-1.94h0L4.93,6.48h9.51a1.43,1.43,0,0,0,0-2.86H4.87L6.1,2.42A1.38,1.38,0,0,0,6.1.48h0L6,.4a1.42,1.42,0,0,0-2,0H4L.4,4.06a1.34,1.34,0,0,0-.4,1Z" transform="translate(0 0.02)"/></g></g></svg>