<svg xmlns="http://www.w3.org/2000/svg" xmlns:xlink="http://www.w3.org/1999/xlink" viewBox="0 0 44.2 44.2"><defs><style>.cls-1{fill:url(#linear-gradient);}</style><linearGradient id="linear-gradient" x1="-194.48" y1="263.68" x2="-193.48" y2="263.68" gradientTransform="matrix(44.2, 0, 0, -44.2, 8595.87, 11676.75)" gradientUnits="userSpaceOnUse"><stop offset="0" stop-color="#42e688"/><stop offset="1" stop-color="#57f83b"/></linearGradient></defs><g id="Layer_2" data-name="Layer 2"><g id="Layer_1-2" data-name="Layer 1"><path id="Path_125" data-name="Path 125" class="cls-1" d="M22.1,0A22.1,22.1,0,1,0,44.2,22.1,22.09,22.09,0,0,0,22.1,0ZM33.67,30.66c-1,1.49-1.8,3-5.82,3.13s-8.36-3.4-11.46-6.8c-3.09-3-6-6.89-6-10.66.09-4,1.64-4.86,3.13-5.82a1.53,1.53,0,0,1,1.52.27c.71.62,3.82,3.73,3.82,3.73a1.45,1.45,0,0,1,.34,1.94c-.6.82-2,2.31-2.19,2.51l.53,1a19.15,19.15,0,0,0,4,4.84,27.75,27.75,0,0,0,3.64,2.33c.33-.31,1.7-1.57,2.45-2.14a1.45,1.45,0,0,1,2,.34s3.11,3.11,3.72,3.82A1.51,1.51,0,0,1,33.67,30.66Z"/></g></g></svg>