<svg xmlns="http://www.w3.org/2000/svg" viewBox="0 0 23.61 23.61"><defs><style>.cls-1{fill:#fff;}.cls-2{fill:#2c2c2c;}</style></defs><g id="Layer_2" data-name="Layer 2"><g id="Layer_1-2" data-name="Layer 1"><g id="Group_35" data-name="Group 35"><path id="Path_61" data-name="Path 61" class="cls-1" d="M11.81,0a11.81,11.81,0,1,0,11.8,11.81h0A11.8,11.8,0,0,0,11.81,0ZM4.21,17.5C4.21,13.34,6.35,10,9,10a3.24,3.24,0,1,1,3.24-3.24A3.24,3.24,0,0,1,9,10H9c1.49,0,2.83,1.08,3.71,2.76a10.05,10.05,0,0,1,1,3.76c0,.33,0,.67,0,1Zm10.3-1a10.06,10.06,0,0,0-1-3.76,3.41,3.41,0,0,1,2.82-2.06,2.5,2.5,0,1,1,2.5-2.5,2.49,2.49,0,0,1-2.5,2.5c2,0,3.7,2.61,3.7,5.82Z"/><circle id="Ellipse_2" data-name="Ellipse 2" class="cls-2" cx="9" cy="6.74" r="3.24"/><circle id="Ellipse_3" data-name="Ellipse 3" class="cls-2" cx="16.28" cy="8.18" r="2.5"/><path id="Path_62" data-name="Path 62" class="cls-2" d="M16.28,10.68a3.39,3.39,0,0,0-2.82,2.05,10.15,10.15,0,0,1,1,3.77H20C20,13.29,18.33,10.68,16.28,10.68Z"/><path id="Path_63" data-name="Path 63" class="cls-2" d="M12.71,12.73C11.83,11.05,10.49,10,9,10c-2.65,0-4.79,3.37-4.79,7.52h9.58c0-.34,0-.67,0-1A10.15,10.15,0,0,0,12.71,12.73Z"/></g></g></g></svg>