<svg xmlns="http://www.w3.org/2000/svg" viewBox="0 0 42.47 42.47"><defs><style>.cls-1{fill:#00f53f;}.cls-2{fill:#f8f8fb;}</style></defs><g id="Layer_2" data-name="Layer 2"><g id="Layer_1-2" data-name="Layer 1"><path id="Path_40" data-name="Path 40" class="cls-1" d="M21.23,0A21.24,21.24,0,1,0,42.47,21.23,21.24,21.24,0,0,0,21.23,0ZM31.94,17.61,26.52,23a2.6,2.6,0,1,1-5,.08L19.48,21a2.57,2.57,0,0,1-2,0l-5.39,5.4a1.11,1.11,0,0,1-1.61-1.53.08.08,0,0,0,0,0L16,19.39a2.6,2.6,0,1,1,5-1.54,2.65,2.65,0,0,1,0,1.45l2.12,2.12a2.57,2.57,0,0,1,1.89,0L30.38,16A1.11,1.11,0,1,1,32,17.57l0,0Z"/><path id="Path_41" data-name="Path 41" class="cls-2" d="M30.38,16,25,21.42a2.57,2.57,0,0,0-1.89,0L21,19.3a2.6,2.6,0,1,0-5,.09l-5.48,5.47a1.11,1.11,0,0,0,1.57,1.57L17.48,21a2.57,2.57,0,0,0,2,0l2.08,2.08a2.6,2.6,0,1,0,5-.08l5.42-5.42A1.11,1.11,0,0,0,30.42,16s0,0,0,0Z"/></g></g></svg>