<svg xmlns="http://www.w3.org/2000/svg" viewBox="0 0 23.61 23.61"><defs><style>.cls-1{fill:#fff;}</style></defs><g id="Layer_2" data-name="Layer 2"><g id="Layer_1-2" data-name="Layer 1"><path id="Path_129" data-name="Path 129" class="cls-1" d="M11.81,0a11.81,11.81,0,1,0,11.8,11.81A11.81,11.81,0,0,0,11.81,0ZM18,16.38c-.51.8-1,1.62-3.11,1.67s-4.46-1.82-6.12-3.63c-1.65-1.6-3.17-3.68-3.17-5.69s.87-2.6,1.67-3.11a.8.8,0,0,1,.81.14c.38.33,2,2,2,2a.78.78,0,0,1,.18,1C10,9.22,9.21,10,9.11,10.13l.28.53a10.52,10.52,0,0,0,2.16,2.58,15.36,15.36,0,0,0,1.95,1.25c.18-.17.91-.84,1.31-1.15s1,.19,1,.19,1.66,1.66,2,2a.79.79,0,0,1,.14.81Z"/></g></g></svg>