<svg xmlns="http://www.w3.org/2000/svg" viewBox="0 0 42.43 42.43"><defs><style>.cls-1{fill:#00f53f;}.cls-2{fill:#fff;}</style></defs><g id="Layer_2" data-name="Layer 2"><g id="Layer_1-2" data-name="Layer 1"><path id="Path_51" data-name="Path 51" class="cls-1" d="M21.22,0A21.22,21.22,0,1,0,42.43,21.21h0A21.22,21.22,0,0,0,21.22,0Zm.09,35.76a9.07,9.07,0,0,1-9.17-8.95c0-.17,0-.35,0-.53a10,10,0,0,1,1.58-4.74A117.74,117.74,0,0,0,19.5,11.1a22.44,22.44,0,0,0,1.64-4.43,3.55,3.55,0,0,1,.45,1.17,43.88,43.88,0,0,0,3.48,7.45c1.31,2.33,2.68,4.63,4,7A9.05,9.05,0,0,1,21.3,35.76Z"/><path id="Path_52" data-name="Path 52" class="cls-1" d="M24.15,22.47c-.14-.24-.42-.3-.64-.44s-.25.11-.31.22C21.61,25,20,27.73,18.44,30.45c-.26.44,0,.47.27.64s.39.14.55-.14q2.35-4.12,4.73-8.22C24,22.65,24.09,22.58,24.15,22.47Z"/><path id="Path_53" data-name="Path 53" class="cls-2" d="M25.08,15.28a43.48,43.48,0,0,1-3.49-7.44,3.45,3.45,0,0,0-.44-1.17,22.44,22.44,0,0,1-1.64,4.43,119.27,119.27,0,0,1-5.78,10.44,10,10,0,0,0-1.58,4.74,9.06,9.06,0,1,0,16.94-4C27.75,19.92,26.39,17.61,25.08,15.28Zm-9.4,9.48a2.41,2.41,0,0,1,2.44-2.38A2.43,2.43,0,1,1,18,27.23h0a2.42,2.42,0,0,1-2.37-2.44v0ZM19.26,31c-.16.28-.28.34-.54.14s-.54-.2-.28-.64c1.6-2.72,3.17-5.47,4.76-8.2.06-.11.07-.36.31-.22s.51.2.64.44c-.06.11-.11.18-.15.26Q21.62,26.84,19.26,31Zm5.07-.12a2.41,2.41,0,1,1,0-4.82h0a2.41,2.41,0,1,1,0,4.82Z"/><path id="Path_54" data-name="Path 54" class="cls-1" d="M20.5,24.9a2.45,2.45,0,0,0-2.37-2.52h0A2.43,2.43,0,1,0,20.5,24.9Zm-2.45.91a1,1,0,0,1-1-1,1,1,0,0,1,1-1h0a1,1,0,0,1,.95,1v0A1,1,0,0,1,18.05,25.81Z"/><path id="Path_55" data-name="Path 55" class="cls-1" d="M24.35,26a2.41,2.41,0,0,0,0,4.82h0a2.41,2.41,0,1,0,0-4.82Zm0,3.42a1,1,0,0,1,0-2,1,1,0,0,1,1,1,1,1,0,0,1-.94,1Z"/><path id="Path_56" data-name="Path 56" class="cls-2" d="M18.13,23.81a1,1,0,0,0-1.06.94v.05a1,1,0,0,0,1,1,1,1,0,0,0,.1-2Z"/><path id="Path_57" data-name="Path 57" class="cls-2" d="M24.33,27.41a1,1,0,0,0,0,2,1,1,0,0,0,1-1V28.4A1,1,0,0,0,24.33,27.41Z"/></g></g></svg>