<svg xmlns="http://www.w3.org/2000/svg" xmlns:xlink="http://www.w3.org/1999/xlink" viewBox="0 0 189.16 189.16"><defs><style>.cls-1{fill:url(#linear-gradient);}</style><linearGradient id="linear-gradient" y1="94.58" x2="189.16" y2="94.58" gradientUnits="userSpaceOnUse"><stop offset="0" stop-color="#57f83b"/><stop offset="1" stop-color="#42e688"/></linearGradient></defs><g id="Layer_2" data-name="Layer 2"><g id="Layer_1-2" data-name="Layer 1"><path class="cls-1" d="M94.58,0a94.58,94.58,0,1,0,94.58,94.58A94.57,94.57,0,0,0,94.58,0Zm12.47,154.66q0,5.73-3.56,8.8a13.17,13.17,0,0,1-8.91,3.07,12.78,12.78,0,0,1-8.81-3.07q-3.47-3.06-3.46-8.8V78.25q0-5.75,3.46-8.71a13.06,13.06,0,0,1,8.81-3,13.46,13.46,0,0,1,8.91,3q3.56,3,3.56,8.71ZM105.27,45.29q-4,3.66-10.69,3.66T83.89,45.29a12.46,12.46,0,0,1-4-9.6,12.14,12.14,0,0,1,4-9.5q4-3.57,10.69-3.57,6.53,0,10.59,3.57a12,12,0,0,1,4.06,9.5A12.46,12.46,0,0,1,105.27,45.29Z"/></g></g></svg>