<svg xmlns="http://www.w3.org/2000/svg" xmlns:xlink="http://www.w3.org/1999/xlink" viewBox="0 0 14.48 17.64"><defs><style>.cls-1{fill:url(#linear-gradient);}</style><linearGradient id="linear-gradient" x1="-222.2" y1="236.05" x2="-221.2" y2="236.05" gradientTransform="matrix(14.48, 0, 0, -17.64, 3217.17, 4171.53)" gradientUnits="userSpaceOnUse"><stop offset="0" stop-color="#42e688"/><stop offset="1" stop-color="#57f83b"/></linearGradient></defs><g id="Layer_2" data-name="Layer 2"><g id="Layer_1-2" data-name="Layer 1"><path id="Path_30" data-name="Path 30" class="cls-1" d="M13,7.28h-.8a5.37,5.37,0,0,0,.41-2.06,5.4,5.4,0,0,0-10.79,0,5.37,5.37,0,0,0,.41,2.06h-.8A1.45,1.45,0,0,0,0,8.72v7.47a1.46,1.46,0,0,0,1.45,1.45H13a1.46,1.46,0,0,0,1.45-1.45V8.72A1.45,1.45,0,0,0,13,7.28ZM8.14,13V14.3a.91.91,0,0,1-1.82,0V13a1.85,1.85,0,1,1,2.53-.7A1.91,1.91,0,0,1,8.14,13ZM9.45,7.28H5a3,3,0,1,1,5.26-2.06,3,3,0,0,1-.82,2.06Z"/></g></g></svg>