<svg xmlns="http://www.w3.org/2000/svg" viewBox="0 0 43 43"><defs><style>.cls-1{fill:#00f53f;}.cls-2{fill:#fff;}</style></defs><g id="Layer_2" data-name="Layer 2"><g id="Layer_1-2" data-name="Layer 1"><circle id="Ellipse_1" data-name="Ellipse 1" class="cls-1" cx="21.5" cy="21.5" r="21.5"/><path id="Path_58" data-name="Path 58" class="cls-2" d="M21.71,12.15a10,10,0,0,1,7,2.12,9.34,9.34,0,0,1,3.48,6.41A1.67,1.67,0,0,0,34,19.06a1.54,1.54,0,0,0-.1-.64,3.54,3.54,0,0,0-.45-.71.87.87,0,0,1,.08-1.14.85.85,0,0,1,1.16,0,2.74,2.74,0,0,1,.32.36,3.81,3.81,0,0,1,.71,1.68v.79a1.8,1.8,0,0,0-.05.19,3.37,3.37,0,0,1-2.41,2.68,5.67,5.67,0,0,1-1,.18c0,.11,0,.23-.05.34a9.47,9.47,0,0,1-3.95,6.59.42.42,0,0,0-.21.39c0,.68,0,1.36,0,2a.85.85,0,0,1-.78.93H23.77a.87.87,0,0,1-.94-.78V31H17.72v.68a.92.92,0,0,1-.78,1H13.52a.87.87,0,0,1-1-.76.74.74,0,0,1,0-.21c0-.89,0-1.78,0-2.67a.52.52,0,0,0-.14-.33,9.69,9.69,0,0,1-2.14-2.67.53.53,0,0,0-.31-.17c-.24,0-.49,0-.74,0a2.53,2.53,0,0,1-2.6-2.37,16.3,16.3,0,0,1,0-2.21,2.35,2.35,0,0,1,1.47-2.1,8.27,8.27,0,0,1,1.47-.35s0,0,0,0a9.39,9.39,0,0,1,2-3.6.58.58,0,0,0,.1-.33V11.43a.87.87,0,0,1,.77-.95h.22a5.94,5.94,0,0,1,4,1.66.58.58,0,0,0,.34.19c1.1,0,2.19-.1,3.29-.15h.27ZM13.39,20.7a.85.85,0,0,0,.87-.84h0a.88.88,0,0,0-.85-.86.86.86,0,0,0-.86.86h0a.85.85,0,0,0,.84.85h0Z"/><path id="Path_59" data-name="Path 59" class="cls-1" d="M13.39,20.7a.84.84,0,0,1-.84-.84h0A.85.85,0,0,1,13.4,19s0,0,0,0a.89.89,0,0,1,.85.86.85.85,0,0,1-.85.85Z"/><g id="Group_33" data-name="Group 33"><path id="Path_60" data-name="Path 60" class="cls-1" d="M24.34,24.29a.91.91,0,0,1-.16,1.23,4.9,4.9,0,0,1-1.41.83,4.1,4.1,0,0,1-1.51.29,3.41,3.41,0,0,1-2.46-.94A4.84,4.84,0,0,1,17.48,23h-.95a.59.59,0,0,1-.42-.17.56.56,0,0,1-.18-.42.52.52,0,0,1,.18-.41.6.6,0,0,1,.42-.16h.82c0-.12,0-.3,0-.54s0-.43,0-.54h-.82a.59.59,0,0,1-.42-.17.57.57,0,0,1-.18-.4.56.56,0,0,1,.18-.42.59.59,0,0,1,.42-.17h.95A4.92,4.92,0,0,1,18.8,17a3.41,3.41,0,0,1,2.46-.94,4.31,4.31,0,0,1,1.51.29,4.68,4.68,0,0,1,1.41.83.91.91,0,0,1,.25.3.73.73,0,0,1,.08.38.82.82,0,0,1-.17.55.53.53,0,0,1-.44.23.81.81,0,0,1-.27-.05,2,2,0,0,1-.32-.18,4.19,4.19,0,0,0-1-.63,2.36,2.36,0,0,0-.94-.19,1.75,1.75,0,0,0-1.32.5,3,3,0,0,0-.68,1.56h1.88a.57.57,0,0,1,.43.17.59.59,0,0,1,.17.42.58.58,0,0,1-.17.41.62.62,0,0,1-.43.16h-2c0,.12,0,.3,0,.54a3.8,3.8,0,0,0,0,.54h2a.62.62,0,0,1,.43.16.58.58,0,0,1,.17.41.59.59,0,0,1-.17.42.61.61,0,0,1-.43.17H19.34A3,3,0,0,0,20,24.61a1.76,1.76,0,0,0,1.32.51,2.36,2.36,0,0,0,.9-.2,8.75,8.75,0,0,0,1.07-.62,1.5,1.5,0,0,1,.32-.19.81.81,0,0,1,.27-.05A.53.53,0,0,1,24.34,24.29Z"/></g></g></g></svg>