<svg xmlns="http://www.w3.org/2000/svg" xmlns:xlink="http://www.w3.org/1999/xlink" viewBox="0 0 55.58 51.61"><defs><style>.cls-1{fill:url(#linear-gradient);}.cls-2{fill:url(#linear-gradient-2);}.cls-3{fill:url(#linear-gradient-3);}.cls-4{fill:url(#linear-gradient-4);}.cls-5{fill:url(#linear-gradient-5);}</style><linearGradient id="linear-gradient" x1="-189.7" y1="255.51" x2="-188.7" y2="255.51" gradientTransform="matrix(51.61, 0, 0, -18.88, 9790.17, 4866.16)" gradientUnits="userSpaceOnUse"><stop offset="0" stop-color="#42e688"/><stop offset="1" stop-color="#57f83b"/></linearGradient><linearGradient id="linear-gradient-2" x1="-182.1" y1="259.56" x2="-181.1" y2="259.56" gradientTransform="matrix(19.68, 0, 0, -23.42, 3584.38, 6112.48)" xlink:href="#linear-gradient"/><linearGradient id="linear-gradient-3" x1="-186.89" y1="252.86" x2="-185.89" y2="252.86" gradientTransform="matrix(32.25, 0, 0, -16.76, 6028.09, 4260.96)" xlink:href="#linear-gradient"/><linearGradient id="linear-gradient-4" x1="-182" y1="253.29" x2="-181" y2="253.29" gradientTransform="matrix(19.53, 0, 0, -17.07, 3586.13, 4358.64)" xlink:href="#linear-gradient"/><linearGradient id="linear-gradient-5" x1="-186.26" y1="263.15" x2="-185.26" y2="263.15" gradientTransform="matrix(29.77, 0, 0, -29.77, 5571.6, 7849.8)" xlink:href="#linear-gradient"/></defs><g id="Layer_2" data-name="Layer 2"><g id="Layer_1-2" data-name="Layer 1"><g id="Mail-3"><path id="Path_83" data-name="Path 83" class="cls-1" d="M51.61,47.18,30,32.79l-3.78,1.85a1,1,0,0,1-.89,0l-3.66-1.9L0,47.24v1.4a3,3,0,0,0,3,3H48.63a3,3,0,0,0,3-3h0Z"/><path id="Path_84" data-name="Path 84" class="cls-2" d="M0,44.85,19.68,31.68,0,21.43Z"/><path id="Path_85" data-name="Path 85" class="cls-3" d="M0,19.19,25.82,32.63l6.43-3.15a16.86,16.86,0,0,1-8.38-13.6H3a3,3,0,0,0-3,3Z"/><path id="Path_86" data-name="Path 86" class="cls-4" d="M51.61,27.73a16.75,16.75,0,0,1-17.09,2.84l-2.44,1.2,19.53,13Z"/><path id="Path_87" data-name="Path 87" class="cls-5" d="M40.69,0A14.89,14.89,0,1,0,55.58,14.89h0A14.89,14.89,0,0,0,40.69,0ZM39.41,21.54a1,1,0,0,1-1.4,0l-5.62-5.61,1.4-1.4,4.91,4.92L49.23,8.92l1.4,1.4Z"/></g></g></g></svg>