<svg xmlns="http://www.w3.org/2000/svg" viewBox="0 0 42.47 42.47"><defs><style>.cls-1{fill:#00f53f;}.cls-2{fill:#00eb7d;}.cls-3{fill:#fff;}</style></defs><g id="Layer_2" data-name="Layer 2"><g id="Layer_1-2" data-name="Layer 1"><path id="Path_46" data-name="Path 46" class="cls-1" d="M21.24,0A21.24,21.24,0,1,0,42.47,21.24,21.24,21.24,0,0,0,21.24,0ZM16.9,18.29a3.23,3.23,0,0,1-1.2,1.18A3.45,3.45,0,0,1,14,19.9a3.35,3.35,0,0,1-1.69-.43,3.28,3.28,0,0,1-1.19-1.18,3.14,3.14,0,0,1-.44-1.67,3.23,3.23,0,0,1,1.63-2.86,3.54,3.54,0,0,1,3.38,0,3.23,3.23,0,0,1,1.2,1.18,3.31,3.31,0,0,1,.45,1.68A3.24,3.24,0,0,1,16.9,18.29Zm6.47,7.18a4.26,4.26,0,0,0,3.49,1.44,5.18,5.18,0,0,0,1.75-.29,8.44,8.44,0,0,0,1.83-1,2.58,2.58,0,0,1,.44-.22,1.27,1.27,0,0,1,.47-.09.79.79,0,0,1,.64.33,1.26,1.26,0,0,1,.26.82,1.35,1.35,0,0,1-.11.59,1.14,1.14,0,0,1-.4.47,7,7,0,0,1-2.27,1.25,8.59,8.59,0,0,1-2.75.43,7.79,7.79,0,0,1-3.95-1,6.55,6.55,0,0,1-2.6-2.79,10.36,10.36,0,0,1,0-8.48,6.52,6.52,0,0,1,2.6-2.78,7.79,7.79,0,0,1,3.95-1,8.59,8.59,0,0,1,2.75.43,7,7,0,0,1,2.27,1.25,1.26,1.26,0,0,1,.4.46,1.39,1.39,0,0,1,.11.6,1.26,1.26,0,0,1-.26.82.79.79,0,0,1-.64.33,1.56,1.56,0,0,1-.91-.31,7,7,0,0,0-1.77-1,5.85,5.85,0,0,0-1.81-.28A4.26,4.26,0,0,0,23.37,17a8.16,8.16,0,0,0,0,8.47Z"/><path id="Path_47" data-name="Path 47" class="cls-2" d="M14,14.83a1.64,1.64,0,0,0-1.22.5,1.76,1.76,0,0,0-.48,1.29,1.72,1.72,0,0,0,.48,1.28,1.64,1.64,0,0,0,1.22.5,1.71,1.71,0,0,0,1.24-.5,1.72,1.72,0,0,0,.48-1.28,1.76,1.76,0,0,0-.48-1.29A1.71,1.71,0,0,0,14,14.83Z"/><path id="Path_48" data-name="Path 48" class="cls-3" d="M15.7,13.76A3.35,3.35,0,0,0,14,13.33a3.29,3.29,0,0,0-2.91,4.91,3.35,3.35,0,0,0,1.23,1.22A3.4,3.4,0,0,0,14,19.9a3.46,3.46,0,0,0,1.69-.44,3.19,3.19,0,0,0,1.65-2.84,3.3,3.3,0,0,0-.44-1.68A3.26,3.26,0,0,0,15.7,13.76Zm-.45,4.13a1.63,1.63,0,0,1-1.24.5,1.61,1.61,0,0,1-1.22-.5,1.72,1.72,0,0,1-.48-1.27,1.76,1.76,0,0,1,.48-1.29,1.64,1.64,0,0,1,1.22-.5,1.67,1.67,0,0,1,1.24.5,1.76,1.76,0,0,1,.48,1.29A1.72,1.72,0,0,1,15.25,17.89Z"/><path id="Path_49" data-name="Path 49" class="cls-3" d="M26.86,15.57a5.52,5.52,0,0,1,1.81.27,6.54,6.54,0,0,1,1.77,1,1.66,1.66,0,0,0,.91.31A.81.81,0,0,0,32,16.8a1.26,1.26,0,0,0,.27-.81,1.49,1.49,0,0,0-.11-.6,1.31,1.31,0,0,0-.4-.47,7.15,7.15,0,0,0-2.28-1.25,8.53,8.53,0,0,0-2.74-.43,7.77,7.77,0,0,0-3.95,1A6.52,6.52,0,0,0,20.18,17a10.36,10.36,0,0,0,0,8.48,6.43,6.43,0,0,0,2.6,2.79,7.77,7.77,0,0,0,3.95,1,8.53,8.53,0,0,0,2.74-.43,7.15,7.15,0,0,0,2.28-1.25,1.21,1.21,0,0,0,.4-.47,1.71,1.71,0,0,0,.11-.59,1.27,1.27,0,0,0-.27-.82.77.77,0,0,0-.64-.33,1.18,1.18,0,0,0-.46.09,2.35,2.35,0,0,0-.45.22,8.37,8.37,0,0,1-1.82,1,5,5,0,0,1-1.76.29,4.23,4.23,0,0,1-3.48-1.44,8.16,8.16,0,0,1,0-8.47A4.19,4.19,0,0,1,26.86,15.57Z"/></g></g></svg>