<svg xmlns="http://www.w3.org/2000/svg" xmlns:xlink="http://www.w3.org/1999/xlink" viewBox="0 0 325.07 231.05"><defs><style>.cls-1{fill:url(#linear-gradient);}.cls-2{fill:url(#linear-gradient-2);}.cls-3{fill:url(#linear-gradient-3);}.cls-4{fill:url(#linear-gradient-4);}.cls-5{fill:url(#linear-gradient-5);}.cls-6{fill:url(#linear-gradient-6);}.cls-7{fill:url(#linear-gradient-7);}.cls-8{fill:url(#linear-gradient-8);}.cls-9{fill:url(#linear-gradient-9);}.cls-10{fill:url(#linear-gradient-10);}.cls-11{fill:url(#linear-gradient-11);}.cls-12{fill:url(#Green_gradient);}</style><linearGradient id="linear-gradient" x1="36.69" y1="123.15" x2="279.44" y2="123.75" gradientUnits="userSpaceOnUse"><stop offset="0" stop-color="#42e688"/><stop offset="1" stop-color="#57f83b"/></linearGradient><linearGradient id="linear-gradient-2" x1="38.12" y1="92.87" x2="273.68" y2="93.46" xlink:href="#linear-gradient"/><linearGradient id="linear-gradient-3" x1="40.63" y1="67.74" x2="271.36" y2="68.31" xlink:href="#linear-gradient"/><linearGradient id="linear-gradient-4" x1="43.75" y1="49.73" x2="272.5" y2="50.3" xlink:href="#linear-gradient"/><linearGradient id="linear-gradient-5" x1="44.22" y1="40.33" x2="279" y2="40.91" xlink:href="#linear-gradient"/><linearGradient id="linear-gradient-6" x1="46.45" y1="40.29" x2="281.52" y2="40.87" xlink:href="#linear-gradient"/><linearGradient id="linear-gradient-7" x1="53.06" y1="49.59" x2="281.82" y2="50.15" xlink:href="#linear-gradient"/><linearGradient id="linear-gradient-8" x1="54.17" y1="67.5" x2="284.84" y2="68.07" xlink:href="#linear-gradient"/><linearGradient id="linear-gradient-9" x1="51.77" y1="92.56" x2="287.24" y2="93.14" xlink:href="#linear-gradient"/><linearGradient id="linear-gradient-10" x1="45.93" y1="122.77" x2="288.53" y2="123.37" xlink:href="#linear-gradient"/><linearGradient id="linear-gradient-11" x1="148.83" y1="110.5" x2="176.24" y2="110.5" xlink:href="#linear-gradient"/><linearGradient id="Green_gradient" x1="0" y1="115.52" x2="325.07" y2="115.52" xlink:href="#linear-gradient"/></defs><g id="Layer_2" data-name="Layer 2"><g id="v6"><path class="cls-1" d="M36.19,119.09h0a2.4,2.4,0,0,1,3-1.6l22.75,6.82a2.39,2.39,0,0,1,1.6,3h0a2.38,2.38,0,0,1-3,1.6l-22.76-6.82A2.39,2.39,0,0,1,36.19,119.09Z"/><path class="cls-2" d="M51.94,85.16h0a2.39,2.39,0,0,1,3.3-.7l19.9,13a2.38,2.38,0,0,1,.7,3.3h0a2.38,2.38,0,0,1-3.3.69l-19.9-13A2.38,2.38,0,0,1,51.94,85.16Z"/><path class="cls-3" d="M76.56,57h0a2.38,2.38,0,0,1,3.36.25l15.49,18a2.39,2.39,0,0,1-.25,3.36h0a2.39,2.39,0,0,1-3.36-.25l-15.49-18A2.38,2.38,0,0,1,76.56,57Z"/><path class="cls-4" d="M108.05,36.93h0a2.37,2.37,0,0,1,3.15,1.18L121,59.73a2.38,2.38,0,0,1-1.18,3.16h0a2.4,2.4,0,0,1-3.16-1.18l-9.83-21.63A2.38,2.38,0,0,1,108.05,36.93Z"/><path class="cls-5" d="M143.94,26.46h0a2.4,2.4,0,0,1,2.7,2L150,52a2.37,2.37,0,0,1-2,2.69h0a2.38,2.38,0,0,1-2.7-2l-3.33-23.52A2.39,2.39,0,0,1,143.94,26.46Z"/><path class="cls-6" d="M181.28,26.5h0a2.37,2.37,0,0,1,2,2.69L180,52.71a2.39,2.39,0,0,1-2.7,2h0a2.37,2.37,0,0,1-2-2.69l3.34-23.52A2.38,2.38,0,0,1,181.28,26.5Z"/><path class="cls-7" d="M217.21,37h0a2.38,2.38,0,0,1,1.18,3.15l-9.84,21.62A2.38,2.38,0,0,1,205.39,63h0a2.37,2.37,0,0,1-1.18-3.15l9.84-21.62A2.38,2.38,0,0,1,217.21,37Z"/><path class="cls-8" d="M248.66,57.15h0a2.39,2.39,0,0,1,.25,3.37l-15.51,18a2.38,2.38,0,0,1-3.36.25h0a2.38,2.38,0,0,1-.25-3.36l15.51-18A2.39,2.39,0,0,1,248.66,57.15Z"/><path class="cls-9" d="M273.23,85.31h0a2.38,2.38,0,0,1-.7,3.29l-19.92,13a2.4,2.4,0,0,1-3.3-.7h0a2.39,2.39,0,0,1,.7-3.3l19.92-12.94A2.38,2.38,0,0,1,273.23,85.31Z"/><path class="cls-10" d="M288.94,119.24h0a2.4,2.4,0,0,1-1.6,3L264.58,129a2.37,2.37,0,0,1-3-1.6h0a2.4,2.4,0,0,1,1.6-3L286,117.64A2.4,2.4,0,0,1,288.94,119.24Z"/><path class="cls-11" d="M162.53,65l-13.7,77.24a13.71,13.71,0,1,0,27.41,0Zm0,84a5.38,5.38,0,1,1,5.38-5.38A5.38,5.38,0,0,1,162.53,149Z"/><path d="M49.51,203.55a3.36,3.36,0,0,1-.95-2.5V171.91H38.75q-3.24,0-3.24-2.86c0-1.9,1.08-2.86,3.24-2.86H65.34c2.16,0,3.24,1,3.24,2.86s-1.08,2.86-3.24,2.86H55.52v29.14a3.36,3.36,0,0,1-.94,2.5,3.4,3.4,0,0,1-2.51.95A3.46,3.46,0,0,1,49.51,203.55Z"/><path d="M115.68,166.87a3.45,3.45,0,0,1,.92,2.51v31.67a3.48,3.48,0,0,1-.95,2.53,3.63,3.63,0,0,1-4.94,0,3.54,3.54,0,0,1-.91-2.53V187.72H90.32v13.33a3.47,3.47,0,0,1-.94,2.53,3.34,3.34,0,0,1-2.51,1,3.27,3.27,0,0,1-2.46-1,3.47,3.47,0,0,1-.94-2.53V169.38a3.41,3.41,0,0,1,.92-2.51,3.3,3.3,0,0,1,2.48-1,3.25,3.25,0,0,1,3.45,3.46v12.73H109.8V169.38a3.44,3.44,0,0,1,.91-2.51,3.73,3.73,0,0,1,5,0Z"/><path d="M136.48,203.37a3.22,3.22,0,0,1-.89-2.43V169.48a3.18,3.18,0,0,1,.89-2.42,3.35,3.35,0,0,1,2.45-.87h19.48a3.77,3.77,0,0,1,2.42.7,2.43,2.43,0,0,1,.87,2,2.57,2.57,0,0,1-.87,2.08,3.66,3.66,0,0,1-2.42.73h-16v10.46h15a3.82,3.82,0,0,1,2.43.7,2.52,2.52,0,0,1,.86,2,2.44,2.44,0,0,1-.86,2,3.76,3.76,0,0,1-2.43.7h-15v11.12h16a3.66,3.66,0,0,1,2.42.72,2.57,2.57,0,0,1,.87,2.08,2.43,2.43,0,0,1-.87,2,3.71,3.71,0,0,1-2.42.7H138.93A3.39,3.39,0,0,1,136.48,203.37Z"/><path d="M209.23,201.75a2.56,2.56,0,0,1-1,2.05,3.63,3.63,0,0,1-2.35.81,3.53,3.53,0,0,1-1.64-.41,3.49,3.49,0,0,1-1.33-1.21l-7.17-10.9a7.12,7.12,0,0,0-2.29-2.43,6.35,6.35,0,0,0-3.16-.7H185v12.09a3.53,3.53,0,0,1-.91,2.56,3.32,3.32,0,0,1-2.49.94,3.36,3.36,0,0,1-2.5-.94,3.47,3.47,0,0,1-.95-2.56V169.48a3.22,3.22,0,0,1,.89-2.42,3.36,3.36,0,0,1,2.46-.87H195q6.48,0,9.85,2.89t3.37,8.33a10.56,10.56,0,0,1-2.51,7.26,11.84,11.84,0,0,1-7.09,3.64,6.88,6.88,0,0,1,2.75,1.35,12.11,12.11,0,0,1,2.32,2.7l4.91,7.5A3.44,3.44,0,0,1,209.23,201.75Zm-9.44-19.61a5.53,5.53,0,0,0,1.83-4.56,5.42,5.42,0,0,0-1.83-4.56c-1.23-1-3.15-1.43-5.78-1.43H185v12H194C196.64,183.62,198.56,183.13,199.79,182.14Z"/><path d="M262.64,166.87a3.44,3.44,0,0,1,.91,2.51v31.94a3.2,3.2,0,0,1-.86,2.37,3.07,3.07,0,0,1-2.26.86,2.91,2.91,0,0,1-2.22-.86,3.34,3.34,0,0,1-.81-2.37V179.09l-9.17,17.37a5.29,5.29,0,0,1-1.4,1.75,2.87,2.87,0,0,1-1.78.57,3,3,0,0,1-1.78-.54,5,5,0,0,1-1.4-1.78l-9.23-17.1v22a3.26,3.26,0,0,1-.84,2.34,2.88,2.88,0,0,1-2.23.89,2.91,2.91,0,0,1-2.22-.86,3.34,3.34,0,0,1-.81-2.37V169.38a3.52,3.52,0,0,1,.89-2.51,3.17,3.17,0,0,1,2.41-1,3.65,3.65,0,0,1,3.29,2.32l12,22.82L257,168.24c.79-1.54,1.85-2.32,3.18-2.32A3.23,3.23,0,0,1,262.64,166.87Z"/><path d="M283.54,203.58a3.47,3.47,0,0,1-.94-2.53V169.38a3.25,3.25,0,0,1,3.45-3.46,3.46,3.46,0,0,1,2.56,1,3.39,3.39,0,0,1,.95,2.51v31.67a3.48,3.48,0,0,1-.95,2.53,3.39,3.39,0,0,1-2.56,1A3.34,3.34,0,0,1,283.54,203.58Z"/><path class="cls-12" d="M291.57,231.05H33.5A33.54,33.54,0,0,1,0,197.55V33.5A33.54,33.54,0,0,1,33.5,0H291.57a33.54,33.54,0,0,1,33.5,33.5V197.55A33.54,33.54,0,0,1,291.57,231.05ZM33.5,7A26.53,26.53,0,0,0,7,33.5V197.55a26.53,26.53,0,0,0,26.5,26.5H291.57a26.53,26.53,0,0,0,26.5-26.5V33.5A26.53,26.53,0,0,0,291.57,7Z"/></g></g></svg>