<svg xmlns="http://www.w3.org/2000/svg" xmlns:xlink="http://www.w3.org/1999/xlink" viewBox="0 0 116.12 115.14"><defs><style>.cls-1{fill:url(#linear-gradient);}.cls-2{fill:#fff;}</style><linearGradient id="linear-gradient" x1="-189.34" y1="307.21" x2="-188.34" y2="307.21" gradientTransform="matrix(116.12, 0, 0, -100.75, 21985.54, 31002.3)" gradientUnits="userSpaceOnUse"><stop offset="0" stop-color="#42e688"/><stop offset="1" stop-color="#57f83b"/></linearGradient></defs><g id="Layer_2" data-name="Layer 2"><g id="Layer_1-2" data-name="Layer 1"><path id="Path_24" data-name="Path 24" class="cls-1" d="M58.06,0C26,0,0,25.77,0,57.57A57.18,57.18,0,0,0,18.28,99.5,38.79,38.79,0,0,1,43.35,63.43a25.07,25.07,0,1,1,28.87.32A38.76,38.76,0,0,1,96.48,99.62c0,.38,0,.76,0,1.13a57.24,57.24,0,0,0,19.66-43.18C116.12,25.78,90.12,0,58.06,0Z"/><path id="Path_25" data-name="Path 25" class="cls-2" d="M72.22,63.74a25.06,25.06,0,1,0-28.87-.32A38.79,38.79,0,0,0,18.28,99.5a58.41,58.41,0,0,0,78.18,1.25c0-.38,0-.75,0-1.13A38.77,38.77,0,0,0,72.22,63.74Z"/></g></g></svg>